<svg xmlns="http://www.w3.org/2000/svg" viewBox="0 0 2400 1298"><filter id="b"><feGaussianBlur stdDeviation="12" /></filter><path fill="#9c806e" d="M0 0h2400v1293H0z"/><g filter="url(#b)" transform="translate(4.7 4.7) scale(9.375)" fill-opacity=".5"><ellipse fill="#fbfdff" rx="1" ry="1" transform="matrix(-28.49679 -12.16558 85.75133 -200.86483 89.7 21.3)"/><ellipse fill="#460000" rx="1" ry="1" transform="matrix(8.58627 -65.83029 34.03171 4.43877 244.3 33.4)"/><ellipse fill="#260e23" rx="1" ry="1" transform="rotate(-31.1 211.6 -224.6) scale(32.98004 57.65717)"/><ellipse fill="#6e3000" cx="11" cy="55" rx="29" ry="50"/><path fill="#e1ebfa" d="M257.5 101v40h-49v-40z"/><ellipse fill="#b7a9af" rx="1" ry="1" transform="rotate(-29.5 215.1 -136.6) scale(13.98943 122.19245)"/><path fill="#fff" d="M116.5-36.2l26.3 49.4-43.3 23-26.3-49.4z"/><path fill="#8f573f" d="M86 109l10-70-39-9z"/></g></svg>