<svg xmlns="http://www.w3.org/2000/svg" viewBox="0 0 3840 1920"><filter id="c"><feGaussianBlur stdDeviation="55" /></filter><path fill="#87b8a3" d="M0 0h3840v1920H0z"/><g filter='url(#c)' fill-opacity='.5'><ellipse fill="#225a4f" fill-opacity=".5" rx="1" ry="1" transform="matrix(-510.7278 25.08077 -18.18015 -370.20828 1909.3 1023)"/><path fill="#285c53" fill-opacity=".5" d="M1423.7 1934.2l-718-304.8 105.6-248.6 718 304.8z"/><ellipse fill="#b9e3c8" fill-opacity=".5" rx="1" ry="1" transform="rotate(105.8 1558.4 1328.1) scale(378.30318 1745.47774)"/><path fill="#d4eedb" fill-opacity=".5" d="M2557.5 1207.5l315 675-1050-210z"/><ellipse fill="#c6e1d0" fill-opacity=".5" rx="1" ry="1" transform="matrix(-121.9353 178.10903 -328.82753 -225.11877 1198.9 1277.5)"/><path fill="#235852" fill-opacity=".5" d="M973.4 1009.6L755.8 908l145.8-312.7L1119.2 697z"/><path fill="#2f6055" fill-opacity=".5" d="M2317.5 1147.5l240-450-1095 15z"/><ellipse fill="#bae0ca" fill-opacity=".5" rx="1" ry="1" transform="rotate(-126.4 1043.6 -319.6) scale(132.12936 734.91801)"/></g></svg>