<svg width="51" height="51" viewBox="0 0 51 51" fill="none" xmlns="http://www.w3.org/2000/svg">
<rect x="0.6375" y="0.6375" width="49.725" height="49.725" rx="4.4625" fill="url(#paint0_linear_836_335)"/>
<rect x="0.6375" y="0.6375" width="49.725" height="49.725" rx="4.4625" stroke="url(#paint1_linear_836_335)" stroke-width="1.275"/>
<mask id="mask0_836_335" style="mask-type:alpha" maskUnits="userSpaceOnUse" x="12" y="12" width="27" height="27">
<rect x="12.75" y="12.75" width="25.5" height="25.5" fill="#D9D9D9"/>
</mask>
<g mask="url(#mask0_836_335)">
<path d="M25.4977 36.1251C22.7529 36.1251 20.3711 35.2131 18.3523 33.3892C16.3336 31.5652 15.1914 29.2897 14.9258 26.5626H17.0773C17.343 28.7053 18.2771 30.4806 19.8797 31.8884C21.4823 33.2962 23.3549 34.0001 25.4977 34.0001C27.8706 34.0001 29.8805 33.1767 31.5273 31.5298C33.1742 29.8829 33.9977 27.873 33.9977 25.5001C33.9977 23.1272 33.1742 21.1173 31.5273 19.4704C29.8805 17.8236 27.8706 17.0001 25.4977 17.0001C23.9747 17.0001 22.5625 17.3764 21.2609 18.129C19.9594 18.8816 18.9279 19.922 18.1664 21.2501H21.2477V23.3751H15.0852C15.5987 20.896 16.8294 18.8595 18.7773 17.2657C20.7253 15.672 22.9654 14.8751 25.4977 14.8751C26.9674 14.8751 28.3487 15.154 29.6414 15.7118C30.9341 16.2697 32.0586 17.0267 33.0148 17.9829C33.9711 18.9392 34.7281 20.0637 35.2859 21.3564C35.8437 22.6491 36.1227 24.0303 36.1227 25.5001C36.1227 26.9699 35.8437 28.3512 35.2859 29.6439C34.7281 30.9366 33.9711 32.0611 33.0148 33.0173C32.0586 33.9736 30.9341 34.7306 29.6414 35.2884C28.3487 35.8462 26.9674 36.1251 25.4977 36.1251ZM28.4727 29.9626L24.4352 25.9251V20.1876H26.5602V25.0751L29.9602 28.4751L28.4727 29.9626Z" fill="white"/>
</g>
<defs>
<linearGradient id="paint0_linear_836_335" x1="25.5" y1="0" x2="25.5" y2="51" gradientUnits="userSpaceOnUse">
<stop stop-color="white" stop-opacity="0.1"/>
<stop offset="1" stop-color="white" stop-opacity="0.1"/>
</linearGradient>
<linearGradient id="paint1_linear_836_335" x1="37.0404" y1="-0.883117" x2="0.223518" y2="55.2996" gradientUnits="userSpaceOnUse">
<stop stop-color="#565656"/>
<stop offset="1" stop-color="#424242" stop-opacity="0.2"/>
</linearGradient>
</defs>
</svg>
