<svg width="51" height="51" viewBox="0 0 51 51" fill="none" xmlns="http://www.w3.org/2000/svg">
<rect x="0.6375" y="0.6375" width="49.725" height="49.725" rx="4.4625" fill="url(#paint0_linear_836_345)"/>
<rect x="0.6375" y="0.6375" width="49.725" height="49.725" rx="4.4625" stroke="url(#paint1_linear_836_345)" stroke-width="1.275"/>
<mask id="mask0_836_345" style="mask-type:alpha" maskUnits="userSpaceOnUse" x="13" y="13" width="25" height="25">
<rect x="13" y="13" width="25" height="25" fill="#D9D9D9"/>
</mask>
<g mask="url(#mask0_836_345)">
<path d="M24.2005 37.2188L22.7422 35.7344L24.6432 33.8333H21.1536C20.928 34.441 20.5503 34.9401 20.0208 35.3307C19.4913 35.7214 18.888 35.9167 18.2109 35.9167C17.3429 35.9167 16.605 35.6128 15.9974 35.0052C15.3898 34.3976 15.0859 33.6597 15.0859 32.7917C15.0859 32.1146 15.2812 31.5113 15.6719 30.9818C16.0625 30.4523 16.5616 30.0747 17.1693 29.849V21.151C16.5616 20.9253 16.0625 20.5477 15.6719 20.0182C15.2812 19.4887 15.0859 18.8854 15.0859 18.2083C15.0859 17.3403 15.3898 16.6024 15.9974 15.9948C16.605 15.3872 17.3429 15.0833 18.2109 15.0833C18.888 15.0833 19.4913 15.2786 20.0208 15.6693C20.5503 16.0599 20.928 16.559 21.1536 17.1667H24.6432L22.7422 15.2656L24.2005 13.7812L28.6276 18.2083L24.2005 22.6354L22.7422 21.151L24.6432 19.25H21.1536C20.9974 19.7014 20.7543 20.092 20.4245 20.4219C20.0946 20.7517 19.704 20.9948 19.2526 21.151V29.849C19.704 30.0052 20.0946 30.2483 20.4245 30.5781C20.7543 30.908 20.9974 31.2986 21.1536 31.75H24.6432L22.7422 29.849L24.2005 28.3646L28.6276 32.7917L24.2005 37.2188ZM32.7943 35.9167C31.9262 35.9167 31.1884 35.6128 30.5807 35.0052C29.9731 34.3976 29.6693 33.6597 29.6693 32.7917C29.6693 32.0972 29.8646 31.4852 30.2552 30.9557C30.6458 30.4262 31.145 30.0573 31.7526 29.849V21.151C31.145 20.9427 30.6458 20.5738 30.2552 20.0443C29.8646 19.5148 29.6693 18.9028 29.6693 18.2083C29.6693 17.3403 29.9731 16.6024 30.5807 15.9948C31.1884 15.3872 31.9262 15.0833 32.7943 15.0833C33.6623 15.0833 34.4002 15.3872 35.0078 15.9948C35.6154 16.6024 35.9193 17.3403 35.9193 18.2083C35.9193 18.9028 35.724 19.5148 35.3333 20.0443C34.9427 20.5738 34.4436 20.9427 33.8359 21.151V29.849C34.4436 30.0747 34.9427 30.4523 35.3333 30.9818C35.724 31.5113 35.9193 32.1146 35.9193 32.7917C35.9193 33.6597 35.6154 34.3976 35.0078 35.0052C34.4002 35.6128 33.6623 35.9167 32.7943 35.9167ZM18.2109 33.8333C18.5061 33.8333 18.7535 33.7335 18.9531 33.5339C19.1528 33.3342 19.2526 33.0868 19.2526 32.7917C19.2526 32.4965 19.1528 32.2491 18.9531 32.0495C18.7535 31.8498 18.5061 31.75 18.2109 31.75C17.9158 31.75 17.6684 31.8498 17.4687 32.0495C17.2691 32.2491 17.1693 32.4965 17.1693 32.7917C17.1693 33.0868 17.2691 33.3342 17.4687 33.5339C17.6684 33.7335 17.9158 33.8333 18.2109 33.8333ZM32.7943 33.8333C33.0894 33.8333 33.3368 33.7335 33.5365 33.5339C33.7361 33.3342 33.8359 33.0868 33.8359 32.7917C33.8359 32.4965 33.7361 32.2491 33.5365 32.0495C33.3368 31.8498 33.0894 31.75 32.7943 31.75C32.4991 31.75 32.2517 31.8498 32.0521 32.0495C31.8524 32.2491 31.7526 32.4965 31.7526 32.7917C31.7526 33.0868 31.8524 33.3342 32.0521 33.5339C32.2517 33.7335 32.4991 33.8333 32.7943 33.8333ZM18.2109 19.25C18.5061 19.25 18.7535 19.1502 18.9531 18.9505C19.1528 18.7509 19.2526 18.5035 19.2526 18.2083C19.2526 17.9132 19.1528 17.6658 18.9531 17.4661C18.7535 17.2665 18.5061 17.1667 18.2109 17.1667C17.9158 17.1667 17.6684 17.2665 17.4687 17.4661C17.2691 17.6658 17.1693 17.9132 17.1693 18.2083C17.1693 18.5035 17.2691 18.7509 17.4687 18.9505C17.6684 19.1502 17.9158 19.25 18.2109 19.25ZM32.7943 19.25C33.0894 19.25 33.3368 19.1502 33.5365 18.9505C33.7361 18.7509 33.8359 18.5035 33.8359 18.2083C33.8359 17.9132 33.7361 17.6658 33.5365 17.4661C33.3368 17.2665 33.0894 17.1667 32.7943 17.1667C32.4991 17.1667 32.2517 17.2665 32.0521 17.4661C31.8524 17.6658 31.7526 17.9132 31.7526 18.2083C31.7526 18.5035 31.8524 18.7509 32.0521 18.9505C32.2517 19.1502 32.4991 19.25 32.7943 19.25Z" fill="white"/>
</g>
<defs>
<linearGradient id="paint0_linear_836_345" x1="25.5" y1="0" x2="25.5" y2="51" gradientUnits="userSpaceOnUse">
<stop stop-color="white" stop-opacity="0.1"/>
<stop offset="1" stop-color="white" stop-opacity="0.1"/>
</linearGradient>
<linearGradient id="paint1_linear_836_345" x1="37.0404" y1="-0.883117" x2="0.223518" y2="55.2996" gradientUnits="userSpaceOnUse">
<stop stop-color="#565656"/>
<stop offset="1" stop-color="#424242" stop-opacity="0.2"/>
</linearGradient>
</defs>
</svg>
