<svg width="25" height="24" viewBox="0 0 25 24" fill="none" xmlns="http://www.w3.org/2000/svg">
<path d="M23.4688 16.9688C23.8438 17.1562 24.125 17.5781 24.125 18.0469C24.125 18.0938 24.125 18.1875 24.125 18.2812L23 23.1562C22.8594 23.6719 22.4375 24 21.9219 24C9.875 24 0.171875 14.2969 0.171875 2.25C0.171875 1.73438 0.5 1.3125 1.01562 1.17188L5.89062 0.046875C5.98438 0.046875 6.07812 0 6.125 0C6.59375 0 7.01562 0.28125 7.20312 0.703125L9.45312 5.95312C9.5 6.09375 9.54688 6.23438 9.54688 6.375C9.54688 6.75 9.35938 7.07812 9.125 7.26562L6.26562 9.60938C8 13.2656 10.9062 16.1719 14.5625 17.9062L16.9062 15.0469C17.0938 14.8125 17.4219 14.625 17.75 14.625C17.9375 14.625 18.0781 14.6719 18.2188 14.7188L23.4688 16.9688Z" fill="#1EA1F6"/>
</svg>
