<svg width="16" height="16" viewBox="0 0 16 16" fill="none" xmlns="http://www.w3.org/2000/svg">
<path d="M7.99491 3.80664C10.0867 3.80664 11.8133 5.5332 11.8133 7.625C11.8133 9.75 10.0867 11.4434 7.99491 11.4434C5.86991 11.4434 4.17655 9.75 4.17655 7.625C4.17655 5.5332 5.86991 3.80664 7.99491 3.80664ZM7.99491 10.1152C9.35624 10.1152 10.4519 9.01953 10.4519 7.625C10.4519 6.26367 9.35624 5.16797 7.99491 5.16797C6.60038 5.16797 5.50468 6.26367 5.50468 7.625C5.50468 9.01953 6.63359 10.1152 7.99491 10.1152ZM12.8426 3.67383C12.8426 4.17188 12.4441 4.57031 11.9461 4.57031C11.448 4.57031 11.0496 4.17188 11.0496 3.67383C11.0496 3.17578 11.448 2.77734 11.9461 2.77734C12.4441 2.77734 12.8426 3.17578 12.8426 3.67383ZM15.366 4.57031C15.4324 5.79883 15.4324 9.48438 15.366 10.7129C15.2996 11.9082 15.034 12.9375 14.1707 13.834C13.3074 14.6973 12.2449 14.9629 11.0496 15.0293C9.82109 15.0957 6.13554 15.0957 4.90702 15.0293C3.71171 14.9629 2.68241 14.6973 1.78593 13.834C0.922648 12.9375 0.657023 11.9082 0.590617 10.7129C0.524211 9.48438 0.524211 5.79883 0.590617 4.57031C0.657023 3.375 0.922648 2.3125 1.78593 1.44922C2.68241 0.585938 3.71171 0.320312 4.90702 0.253906C6.13554 0.1875 9.82109 0.1875 11.0496 0.253906C12.2449 0.320312 13.3074 0.585938 14.1707 1.44922C15.034 2.3125 15.2996 3.375 15.366 4.57031ZM13.7723 12.0078C14.1707 11.0449 14.0711 8.7207 14.0711 7.625C14.0711 6.5625 14.1707 4.23828 13.7723 3.24219C13.5066 2.61133 13.0086 2.08008 12.3777 1.84766C11.3816 1.44922 9.05741 1.54883 7.99491 1.54883C6.89921 1.54883 4.57499 1.44922 3.6121 1.84766C2.94804 2.11328 2.44999 2.61133 2.18437 3.24219C1.78593 4.23828 1.88554 6.5625 1.88554 7.625C1.88554 8.7207 1.78593 11.0449 2.18437 12.0078C2.44999 12.6719 2.94804 13.1699 3.6121 13.4355C4.57499 13.834 6.89921 13.7344 7.99491 13.7344C9.05741 13.7344 11.3816 13.834 12.3777 13.4355C13.0086 13.1699 13.5398 12.6719 13.7723 12.0078Z" fill="#1EA1F6"/>
</svg>
