<svg width="16" height="16" viewBox="0 0 16 16" fill="none" xmlns="http://www.w3.org/2000/svg">
<path d="M14.0232 0.1875C14.5877 0.1875 15.0857 0.685547 15.0857 1.2832V14C15.0857 14.5977 14.5877 15.0625 14.0232 15.0625H1.24003C0.675578 15.0625 0.210734 14.5977 0.210734 14V1.2832C0.210734 0.685547 0.675578 0.1875 1.24003 0.1875H14.0232ZM4.69316 12.9375V5.86523H2.50175V12.9375H4.69316ZM3.59745 4.86914C4.29472 4.86914 4.85917 4.30469 4.85917 3.60742C4.85917 2.91016 4.29472 2.3125 3.59745 2.3125C2.86698 2.3125 2.30253 2.91016 2.30253 3.60742C2.30253 4.30469 2.86698 4.86914 3.59745 4.86914ZM12.9607 12.9375V9.05273C12.9607 7.16016 12.5291 5.66602 10.3045 5.66602C9.24198 5.66602 8.51152 6.26367 8.21269 6.82812H8.17948V5.86523H6.08769V12.9375H8.27909V9.45117C8.27909 8.52148 8.44511 7.625 9.60722 7.625C10.7361 7.625 10.7361 8.6875 10.7361 9.48438V12.9375H12.9607Z" fill="#1EA1F6"/>
</svg>
