<svg width="19" height="25" viewBox="0 0 19 25" fill="none" xmlns="http://www.w3.org/2000/svg">
<path d="M8.21563 24.0312C1.37188 14.1875 0.153126 13.1562 0.153126 9.5C0.153126 4.53125 4.1375 0.5 9.15313 0.5C14.1219 0.5 18.1531 4.53125 18.1531 9.5C18.1531 13.1562 16.8875 14.1875 10.0438 24.0312C9.62188 24.6875 8.6375 24.6875 8.21563 24.0312ZM9.15313 13.25C11.2156 13.25 12.9031 11.6094 12.9031 9.5C12.9031 7.4375 11.2156 5.75 9.15313 5.75C7.04375 5.75 5.40313 7.4375 5.40313 9.5C5.40313 11.6094 7.04375 13.25 9.15313 13.25Z" fill="#1EA1F6"/>
</svg>
