<svg width="25" height="18" viewBox="0 0 25 18" fill="none" xmlns="http://www.w3.org/2000/svg">
<path d="M23.7031 5.95312C23.8906 5.8125 24.1719 5.95312 24.1719 6.1875V15.75C24.1719 17.0156 23.1406 18 21.9219 18H2.42188C1.15625 18 0.171875 17.0156 0.171875 15.75V6.1875C0.171875 5.95312 0.40625 5.8125 0.59375 5.95312C1.67188 6.79688 3.03125 7.82812 7.8125 11.2969C8.79688 12 10.4844 13.5469 12.1719 13.5469C13.8125 13.5469 15.5469 12 16.4844 11.2969C21.2656 7.82812 22.625 6.79688 23.7031 5.95312ZM12.1719 12C11.0469 12.0469 9.5 10.6406 8.70312 10.0781C2.46875 5.57812 2 5.15625 0.59375 4.03125C0.3125 3.84375 0.171875 3.51562 0.171875 3.14062V2.25C0.171875 1.03125 1.15625 0 2.42188 0H21.9219C23.1406 0 24.1719 1.03125 24.1719 2.25V3.14062C24.1719 3.51562 23.9844 3.84375 23.7031 4.03125C22.2969 5.15625 21.8281 5.57812 15.5938 10.0781C14.7969 10.6406 13.25 12.0469 12.1719 12Z" fill="#1EA1F6"/>
</svg>
