<svg width="18" height="15" viewBox="0 0 18 15" fill="none" xmlns="http://www.w3.org/2000/svg">
<path d="M16.0623 4.17188C16.0623 4.33789 16.0623 4.4707 16.0623 4.63672C16.0623 9.25195 12.576 14.5312 6.16777 14.5312C4.17559 14.5312 2.34941 13.9668 0.822071 12.9707C1.0877 13.0039 1.35332 13.0371 1.65215 13.0371C3.2791 13.0371 4.77324 12.4727 5.96856 11.543C4.44121 11.5098 3.14629 10.5137 2.71465 9.11914C2.94707 9.15234 3.14629 9.18555 3.37871 9.18555C3.67754 9.18555 4.00957 9.11914 4.2752 9.05273C2.68145 8.7207 1.48613 7.32617 1.48613 5.63281V5.59961C1.95098 5.86523 2.51543 5.99805 3.07988 6.03125C2.11699 5.40039 1.51934 4.33789 1.51934 3.14258C1.51934 2.47852 1.68535 1.88086 1.98418 1.38281C3.71074 3.47461 6.30059 4.86914 9.18926 5.03516C9.12285 4.76953 9.08965 4.50391 9.08965 4.23828C9.08965 2.3125 10.6502 0.751953 12.576 0.751953C13.5721 0.751953 14.4686 1.15039 15.1326 1.84766C15.8963 1.68164 16.66 1.38281 17.324 0.984375C17.0584 1.81445 16.5271 2.47852 15.7967 2.91016C16.4939 2.84375 17.1912 2.64453 17.7889 2.37891C17.324 3.07617 16.7264 3.67383 16.0623 4.17188Z" fill="#1EA1F6"/>
</svg>
