<svg width="24" height="25" viewBox="0 0 24 25" fill="none" xmlns="http://www.w3.org/2000/svg">
<mask id="mask0_155_2636" style="mask-type:alpha" maskUnits="userSpaceOnUse" x="0" y="0" width="24" height="25">
<rect y="0.5" width="24" height="24" fill="#D9D9D9"/>
</mask>
<g mask="url(#mask0_155_2636)">
<path d="M12 21.5L0 9.475C1.55 7.925 3.34583 6.70833 5.3875 5.825C7.42917 4.94167 9.63333 4.5 12 4.5C14.3667 4.5 16.5708 4.94167 18.6125 5.825C20.6542 6.70833 22.45 7.925 24 9.475L22.125 11.375C21.625 10.525 20.9375 9.83333 20.0625 9.3C19.1875 8.76667 18.1667 8.5 17 8.5C15.3333 8.5 13.9167 9.08333 12.75 10.25C11.5833 11.4167 11 12.8333 11 14.5C11 15.65 11.2708 16.6708 11.8125 17.5625C12.3542 18.4542 13.0333 19.1417 13.85 19.625L12 21.5ZM21.6 20.5L19.025 17.95C18.725 18.1333 18.4083 18.2708 18.075 18.3625C17.7417 18.4542 17.3833 18.5 17 18.5C15.8667 18.5 14.9167 18.1167 14.15 17.35C13.3833 16.5833 13 15.6333 13 14.5C13 13.3667 13.3833 12.4167 14.15 11.65C14.9167 10.8833 15.8667 10.5 17 10.5C18.1333 10.5 19.0833 10.8833 19.85 11.65C20.6167 12.4167 21 13.3667 21 14.5C21 14.8833 20.9542 15.2417 20.8625 15.575C20.7708 15.9083 20.6333 16.225 20.45 16.525L23 19.1L21.6 20.5ZM17 16.5C17.5667 16.5 18.0417 16.3083 18.425 15.925C18.8083 15.5417 19 15.0667 19 14.5C19 13.9333 18.8083 13.4583 18.425 13.075C18.0417 12.6917 17.5667 12.5 17 12.5C16.4333 12.5 15.9583 12.6917 15.575 13.075C15.1917 13.4583 15 13.9333 15 14.5C15 15.0667 15.1917 15.5417 15.575 15.925C15.9583 16.3083 16.4333 16.5 17 16.5Z" fill="#1EA1F6"/>
</g>
</svg>
